# xmcd
# Track frame offsets:
# 150
# 13958
# 48103
# 64677
# 99576
# 138843
# 162666
# 197669
# 213023
# 241492
# 269247
#
# Disc length: 4314 seconds
# Revision: 0
# Processed by: cddbd v1.4PL0 Copyright (c) Steve Scherf et al.
# Submitted via: VisiTrax 2.9.5.180 - For more info visit www.synapsa.com
#
DISCID=9f10d80b
DTITLE=Jimi Hendrix - Blues
DYEAR=1994
DGENRE=Blues
TTITLE0=Hear My Train A Comin' (Acoustic)
TTITLE1=Born Under A Bad Sign
TTITLE2=Red House
TTITLE3=Catfish Blues
TTITLE4=Voodoo Chile Blues
TTITLE5=Mannish Boy
TTITLE6=Once I Had A Woman
TTITLE7=Bleeding Heart
TTITLE8=Jelly 292
TTITLE9=Electric Church Red House
TTITLE10=Hear My Train A Comin' (Electric)
EXTD=
EXTT0=
EXTT1=
EXTT2=
EXTT3=
EXTT4=
EXTT5=
EXTT6=
EXTT7=
EXTT8=
EXTT9=
EXTT10=
PLAYORDER=
